<?xml version="1.0"?>
<svg xmlns="http://www.w3.org/2000/svg" id="Capa_1" enable-background="new 0 0 511.962 511.962" height="512px" viewBox="0 0 511.962 511.962" width="512px" class=""><g><g><g><path d="m487.1 167.006c33.152-33.154 33.147-87.103-.01-120.26-16.058-16.064-37.411-24.911-60.128-24.911-22.716 0-44.072 8.847-60.135 24.909-2.488 2.488-4.818 5.125-6.975 7.89-33.966-20.944-78.442-16.229-107.36 12.677-33.642 33.644-33.642 89.788 0 123.433 7.852 7.852 16.993 14.003 26.879 18.307l-127.554 127.553-19.05-19.051c-3.847-3.847-10.294-3.846-14.143 0l-31.28 31.28c-3.905 3.905-3.905 10.237 0 14.143l19.051 19.051-21.451 21.45-36.604-36.596c-3.848-3.846-10.295-3.846-14.143.002l-31.27 31.28c-3.904 3.906-3.903 10.237.002 14.142l74.945 74.936c3.85 3.85 10.291 3.849 14.142 0l97.281-97.281c3.905-3.905 3.905-10.237 0-14.143-3.906-3.904-10.236-3.904-14.143 0l-90.21 90.211-60.804-60.796 17.13-17.136 36.604 36.596c3.905 3.904 10.234 3.904 14.142-.001l35.592-35.592c3.905-3.905 3.905-10.237 0-14.143l-19.051-19.051 17.139-17.138 19.05 19.051c3.847 3.847 10.294 3.846 14.143 0l142.458-142.459c5.359.8 10.826 1.106 16.241.89-.213 5.418.086 10.883.891 16.245l-80.751 80.75c-3.905 3.905-3.905 10.237 0 14.143 3.906 3.904 10.236 3.904 14.143 0l72.916-72.916c4.305 9.887 10.46 19.026 18.314 26.881 33.637 33.647 89.783 33.639 123.423.001 28.911-28.912 33.624-73.393 12.682-107.366 2.762-2.156 5.4-4.488 7.894-6.981zm-29.701 10.691c21.402 26.766 19.244 65.248-5.02 89.513-25.928 25.928-69.211 25.936-95.137 0-15.71-15.711-22.65-38.624-18.483-60.42 1.327-6.872-4.926-13.027-11.716-11.716-21.771 4.199-44.721-2.784-60.409-18.473-25.932-25.93-25.934-69.216-.001-95.146 24.266-24.26 62.744-26.418 89.503-5.021 4.671 3.734 11.795 2.429 14.844-2.705 2.768-4.66 6.129-8.981 9.99-12.843 25.069-25.069 66.909-25.077 91.977 0 25.361 25.36 25.365 66.621.011 91.977-3.873 3.874-8.193 7.232-12.842 9.983-5.144 3.045-6.455 10.174-2.717 14.851z" data-original="#000000" class="active-path" data-old_color="#000000" fill="#FFFFFF"/><path d="m314.393 92.666c-19.511 0-35.384 15.873-35.384 35.384 0 19.51 15.873 35.383 35.384 35.383s35.384-15.873 35.384-35.383c0-19.511-15.873-35.384-35.384-35.384zm0 50.766c-8.482 0-15.384-6.9-15.384-15.383s6.901-15.384 15.384-15.384 15.384 6.901 15.384 15.384-6.901 15.383-15.384 15.383z" data-original="#000000" class="active-path" data-old_color="#000000" fill="#FFFFFF"/><path d="m404.701 184.648c-19.511 0-35.384 15.873-35.384 35.384s15.873 35.384 35.384 35.384 35.384-15.873 35.384-35.384-15.873-35.384-35.384-35.384zm0 50.768c-8.482 0-15.384-6.901-15.384-15.384s6.901-15.384 15.384-15.384 15.384 6.901 15.384 15.384-6.902 15.384-15.384 15.384z" data-original="#000000" class="active-path" data-old_color="#000000" fill="#FFFFFF"/><path d="m427.787 71.486c-19.511 0-35.384 15.873-35.384 35.384 0 19.51 15.873 35.383 35.384 35.383s35.384-15.873 35.384-35.383c0-19.511-15.873-35.384-35.384-35.384zm0 50.767c-8.482 0-15.384-6.9-15.384-15.383s6.901-15.384 15.384-15.384 15.384 6.901 15.384 15.384-6.902 15.383-15.384 15.383z" data-original="#000000" class="active-path" data-old_color="#000000" fill="#FFFFFF"/><path d="m223.28 347.252c-3.401-8.302-15.638-7.953-18.647.455-1.377 3.846-.223 8.265 2.877 10.932 3.375 2.904 8.375 3.202 12.08.743 3.912-2.597 5.499-7.793 3.69-12.13z" data-original="#000000" class="active-path" data-old_color="#000000" fill="#FFFFFF"/></g></g></g> </svg>
